<svg xmlns="http://www.w3.org/2000/svg" viewBox="0 0 436.44 115.95"><defs><style>.cls-1{fill:#232321;}.cls-2{fill:#599d97;}</style></defs><title>Recurso 1abrapalabras</title><g id="Capa_2" data-name="Capa 2"><g id="varios"><path class="cls-1" d="M188.25,47.88V44.81h9.06l.52,5.79a13.51,13.51,0,0,1,4.84-4.79,13.66,13.66,0,0,1,6.91-1.69,12.16,12.16,0,0,1,10.51,5.36q3.79,5.36,3.79,14.29v.72q0,8.37-3.79,13.35a12.4,12.4,0,0,1-10.44,5,15,15,0,0,1-6.88-1.5A12.61,12.61,0,0,1,198,77.07V92.92l5.62.45v3.07H188.25V93.37l5.62-.45V48.33Zm31.5,15.89q0-7.1-2.83-11.58a9.18,9.18,0,0,0-8.27-4.48,10.88,10.88,0,0,0-6.77,2A12.18,12.18,0,0,0,198,54.84V72.76a11.28,11.28,0,0,0,4.08,4.82,11.88,11.88,0,0,0,6.67,1.76,9.36,9.36,0,0,0,8.22-4.07q2.81-4.07,2.81-10.79Z"/><path class="cls-1" d="M252.52,82.1q-.41-1.89-.59-3.27a22.41,22.41,0,0,1-.17-2.79,16.45,16.45,0,0,1-5.51,4.86,15.6,15.6,0,0,1-7.75,1.93Q233,82.83,230,80a10,10,0,0,1-3-7.65,9.45,9.45,0,0,1,4.45-8.2q4.45-3,12.06-3h8.24V56.19a8,8,0,0,0-2.57-6.27q-2.57-2.27-7.19-2.27a18.07,18.07,0,0,0-5.67.84A12.82,12.82,0,0,0,232,50.78l-.34,5h-3.41l0-7.17a21.43,21.43,0,0,1,6.19-3.24,23.38,23.38,0,0,1,7.67-1.24q6.17,0,9.93,3.14t3.76,9V74.59q0,1.14.05,2.19a16.91,16.91,0,0,0,.22,2.05l3.72.24v3Zm-13.58-2.93a14.92,14.92,0,0,0,7.89-2.07,12.22,12.22,0,0,0,4.93-5.34V64.29h-8.31q-5.62,0-9,2.33a6.93,6.93,0,0,0-3.36,5.88,6.15,6.15,0,0,0,2.08,4.84A8.36,8.36,0,0,0,238.94,79.17Z"/><path class="cls-1" d="M263.7,31.41V28.34h9.72V78.62l5.62.45v3H263.7v-3l5.62-.45V31.86Z"/><path class="cls-1" d="M306.77,82.1q-.41-1.89-.59-3.27A22.41,22.41,0,0,1,306,76a16.46,16.46,0,0,1-5.51,4.86,15.6,15.6,0,0,1-7.75,1.93q-5.48,0-8.48-2.83a10,10,0,0,1-3-7.65,9.45,9.45,0,0,1,4.45-8.2q4.45-3,12.06-3H306V56.19a8,8,0,0,0-2.57-6.27q-2.57-2.27-7.19-2.27a18.07,18.07,0,0,0-5.67.84,12.82,12.82,0,0,0-4.29,2.29l-.34,5h-3.41l0-7.17a21.44,21.44,0,0,1,6.19-3.24,23.38,23.38,0,0,1,7.67-1.24q6.17,0,9.93,3.14t3.76,9V74.59q0,1.14.05,2.19a16.91,16.91,0,0,0,.22,2.05l3.72.24v3Zm-13.58-2.93a14.92,14.92,0,0,0,7.89-2.07A12.21,12.21,0,0,0,306,71.76V64.29H297.7q-5.62,0-9,2.33a6.93,6.93,0,0,0-3.36,5.88,6.15,6.15,0,0,0,2.09,4.84A8.36,8.36,0,0,0,293.19,79.17Z"/><path class="cls-1" d="M347.94,64.49q0,8.37-3.79,13.35a12.4,12.4,0,0,1-10.44,5,14.4,14.4,0,0,1-7.07-1.64,12.62,12.62,0,0,1-4.79-4.7l-.45,5.62h-3.52V31.86l-5.62-.45V28.34H322V50.67a12.75,12.75,0,0,1,11.65-6.55,12.16,12.16,0,0,1,10.51,5.36q3.79,5.36,3.79,14.29Zm-4.17-.72q0-7.13-2.76-11.6a9,9,0,0,0-8.13-4.46,10.75,10.75,0,0,0-7,2.14A12.76,12.76,0,0,0,322,55.32V72.18a11.16,11.16,0,0,0,11,7.06,9.16,9.16,0,0,0,8.1-4q2.72-4,2.72-10.75Z"/><path class="cls-1" d="M356.78,44.81l.52,6.2v.45a13.21,13.21,0,0,1,4.33-5.39,10.92,10.92,0,0,1,6.5-1.95,9.56,9.56,0,0,1,1.53.12,11.17,11.17,0,0,1,1.22.26l-.55,3.86-3.07-.21a9.35,9.35,0,0,0-6.39,2.19,12.06,12.06,0,0,0-3.57,6V78.62l5.62.45v3H347.58v-3l5.62-.45V48.33l-5.62-.45V44.81h9.2Z"/><path class="cls-1" d="M398.24,82.1q-.41-1.89-.59-3.27a22.31,22.31,0,0,1-.17-2.79A16.46,16.46,0,0,1,392,80.9a15.6,15.6,0,0,1-7.75,1.93q-5.48,0-8.48-2.83a10,10,0,0,1-3-7.65,9.45,9.45,0,0,1,4.45-8.2q4.45-3,12.06-3h8.24V56.19a8,8,0,0,0-2.57-6.27q-2.57-2.27-7.19-2.27a18.06,18.06,0,0,0-5.67.84,12.81,12.81,0,0,0-4.29,2.29l-.34,5H374l0-7.17a21.43,21.43,0,0,1,6.19-3.24,23.38,23.38,0,0,1,7.67-1.24q6.17,0,9.93,3.14t3.76,9V74.59q0,1.14.05,2.19a16.85,16.85,0,0,0,.22,2.05l3.72.24v3Zm-13.58-2.93a14.93,14.93,0,0,0,7.89-2.07,12.21,12.21,0,0,0,4.93-5.34V64.29h-8.31q-5.62,0-9,2.33a6.93,6.93,0,0,0-3.36,5.88,6.15,6.15,0,0,0,2.08,4.84A8.36,8.36,0,0,0,384.66,79.17Z"/><path class="cls-1" d="M435.68,56.32H432.3l-.48-5.27a10.45,10.45,0,0,0-3.91-2.52,15.24,15.24,0,0,0-5.43-.9q-4.52,0-6.77,1.95a5.87,5.87,0,0,0-2.26,4.57,5.41,5.41,0,0,0,1.95,4.27q1.95,1.69,7.77,3,6.65,1.48,10,4a8.36,8.36,0,0,1,3.31,7,9,9,0,0,1-3.77,7.53q-3.77,2.88-10,2.88a23.28,23.28,0,0,1-7.53-1.15,17.88,17.88,0,0,1-5.88-3.26V70.9h3.34l.59,5.31a9.61,9.61,0,0,0,4.19,2.39,18.72,18.72,0,0,0,5.29.74,11.42,11.42,0,0,0,7.07-2,5.82,5.82,0,0,0,2.58-4.76A6,6,0,0,0,430.18,68q-2.15-2-7.77-3.21-6.65-1.45-9.87-3.84a7.87,7.87,0,0,1-3.22-6.7,9,9,0,0,1,3.62-7.22q3.62-2.95,9.55-2.95a21.43,21.43,0,0,1,7.5,1.26,15.12,15.12,0,0,1,5.53,3.39Z"/><path class="cls-1" d="M31.17,71.26H13.57L10.16,82.07H0L17.26,31.93h10.3L44.74,82.07H34.58ZM16,63.37H28.69l-6.2-19.7h-.21Z"/><path class="cls-1" d="M82.18,64.47q0,8.34-3.72,13.33t-10.75,5a11.4,11.4,0,0,1-5.67-1.36,11.71,11.71,0,0,1-4.12-4l-.76,4.61H48.57V28.35h10V48.77a11.39,11.39,0,0,1,3.87-3.44,10.83,10.83,0,0,1,5.18-1.21q7.09,0,10.81,5.36t3.72,14.28Zm-10-.72a19.61,19.61,0,0,0-1.6-8.68,5.62,5.62,0,0,0-5.46-3.21,7.47,7.47,0,0,0-4,1,6.84,6.84,0,0,0-2.55,2.82V71.55a6.41,6.41,0,0,0,2.57,2.6,8.22,8.22,0,0,0,4,.9q3.89,0,5.44-2.75a16.12,16.12,0,0,0,1.55-7.81Z"/><path class="cls-1" d="M105.54,53.45l-3.69-.1a6.7,6.7,0,0,0-3.69.93A5.89,5.89,0,0,0,96,56.9V82.07h-10V44.81h9.33l.45,5.51a11.75,11.75,0,0,1,3.39-4.56,7.92,7.92,0,0,1,6.2-1.52q.64.12,1.29.29Z"/><path class="cls-1" d="M131.28,82.07a21.06,21.06,0,0,1-.95-2.69,18.69,18.69,0,0,1-.57-2.89A13.85,13.85,0,0,1,125.68,81a10.2,10.2,0,0,1-6,1.79q-5.86,0-9-3a10.79,10.79,0,0,1-3.17-8.21,9.83,9.83,0,0,1,4.22-8.49q4.22-3,12.31-3h5.61v-3a5.8,5.8,0,0,0-1.41-4.17,6.59,6.59,0,0,0-7.94-.29,4.19,4.19,0,0,0-1.33,3.29l-9.71,0,0-.21q-.24-4.72,4.1-8.15t11.4-3.43q6.68,0,10.85,3.39t4.17,9.66v15.4a29.13,29.13,0,0,0,.4,4.92,24.69,24.69,0,0,0,1.26,4.58Zm-9.2-6.72A8.63,8.63,0,0,0,126.8,74a6.81,6.81,0,0,0,2.79-3V65.75H124a6.71,6.71,0,0,0-4.86,1.6,5.2,5.2,0,0,0-1.65,3.87,3.87,3.87,0,0,0,1.24,3A4.8,4.8,0,0,0,122.08,75.36Z"/><path class="cls-1" d="M246.24,90v4.26h-1.47l-.12-2.85H239v17.39l2.26.18v1.22H235.1V109l2.26-.18V91.38h-5.61l-.11,2.85h-1.49V90Z"/><path class="cls-1" d="M247.15,102.45A8.07,8.07,0,0,1,249,97a6.54,6.54,0,0,1,9.65,0,8.07,8.07,0,0,1,1.82,5.44v.46a8.08,8.08,0,0,1-1.81,5.45,6.56,6.56,0,0,1-9.66,0,8.06,8.06,0,0,1-1.82-5.45Zm1.67.46a7.16,7.16,0,0,0,1.32,4.39,4.65,4.65,0,0,0,7.32,0,7.16,7.16,0,0,0,1.32-4.39v-.46a7.13,7.13,0,0,0-1.33-4.36,4.62,4.62,0,0,0-7.31,0,7.15,7.15,0,0,0-1.32,4.36Z"/><path class="cls-1" d="M275.1,108a5.19,5.19,0,0,1-1.93,1.82,5.75,5.75,0,0,1-2.78.64,5,5,0,0,1-4.21-2,8.7,8.7,0,0,1-1.52-5.37v-.29A9.81,9.81,0,0,1,266.18,97a4.9,4.9,0,0,1,4.24-2.16,5.16,5.16,0,0,1,4.64,2.54V89.94l-2.26-.18V88.52h3.93v20.25L279,109v1.22h-3.75Zm-8.76-4.93a7.62,7.62,0,0,0,1.09,4.33,3.7,3.7,0,0,0,3.28,1.61,4.69,4.69,0,0,0,2.67-.72,4.79,4.79,0,0,0,1.67-2V99.21a5.17,5.17,0,0,0-1.6-2.08,4.33,4.33,0,0,0-2.71-.81,3.62,3.62,0,0,0-3.3,1.8,8.83,8.83,0,0,0-1.1,4.67Z"/><path class="cls-1" d="M282.29,102.45A8.07,8.07,0,0,1,284.11,97a6.54,6.54,0,0,1,9.65,0,8.07,8.07,0,0,1,1.82,5.44v.46a8.08,8.08,0,0,1-1.81,5.45,6.56,6.56,0,0,1-9.66,0,8.06,8.06,0,0,1-1.82-5.45Zm1.67.46a7.16,7.16,0,0,0,1.32,4.39,4.65,4.65,0,0,0,7.32,0,7.16,7.16,0,0,0,1.32-4.39v-.46a7.13,7.13,0,0,0-1.33-4.36,4.62,4.62,0,0,0-7.31,0,7.15,7.15,0,0,0-1.32,4.36Z"/><path class="cls-1" d="M308.11,96.39V95.16h3.65l.21,2.33a5.44,5.44,0,0,1,2-1.93,5.5,5.5,0,0,1,2.78-.68A4.9,4.9,0,0,1,320.94,97a9.78,9.78,0,0,1,1.53,5.75v.29a8.67,8.67,0,0,1-1.53,5.38,5,5,0,0,1-4.21,2,6,6,0,0,1-2.77-.6,5.07,5.07,0,0,1-1.94-1.71v6.39l2.26.18V116h-6.18v-1.24l2.26-.18v-18Zm12.69,6.4a8.62,8.62,0,0,0-1.14-4.66,3.7,3.7,0,0,0-3.33-1.8,4.38,4.38,0,0,0-2.73.8A4.91,4.91,0,0,0,312,99.2v7.22a4.55,4.55,0,0,0,1.64,1.94,4.79,4.79,0,0,0,2.69.71,3.77,3.77,0,0,0,3.31-1.64,7.51,7.51,0,0,0,1.13-4.35Z"/><path class="cls-1" d="M326.69,102.45A8.07,8.07,0,0,1,328.51,97a6.54,6.54,0,0,1,9.65,0,8.07,8.07,0,0,1,1.82,5.44v.46a8.08,8.08,0,0,1-1.81,5.45,6.56,6.56,0,0,1-9.66,0,8.06,8.06,0,0,1-1.82-5.45Zm1.67.46a7.16,7.16,0,0,0,1.32,4.39,4.65,4.65,0,0,0,7.32,0,7.16,7.16,0,0,0,1.32-4.39v-.46A7.13,7.13,0,0,0,337,98.09a4.62,4.62,0,0,0-7.31,0,7.15,7.15,0,0,0-1.32,4.36Z"/><path class="cls-1" d="M347.09,95.16l.21,2.5v.18A5.33,5.33,0,0,1,349,95.66a4.4,4.4,0,0,1,2.62-.78,3.86,3.86,0,0,1,.62,0l.49.1-.22,1.55-1.24-.08a3.77,3.77,0,0,0-2.58.88,4.86,4.86,0,0,0-1.44,2.42v9l2.26.18v1.22h-6.18V109l2.26-.18V96.57l-2.26-.18V95.16h3.71Z"/><path class="cls-1" d="M375.63,108a5.19,5.19,0,0,1-1.93,1.82,5.75,5.75,0,0,1-2.78.64,5,5,0,0,1-4.21-2,8.7,8.7,0,0,1-1.52-5.37v-.29A9.81,9.81,0,0,1,366.71,97a4.9,4.9,0,0,1,4.24-2.16,5.16,5.16,0,0,1,4.64,2.54V89.94l-2.26-.18V88.52h3.93v20.25l2.26.18v1.22h-3.75Zm-8.76-4.93a7.62,7.62,0,0,0,1.09,4.33,3.7,3.7,0,0,0,3.28,1.61,4.69,4.69,0,0,0,2.67-.72,4.79,4.79,0,0,0,1.67-2V99.21a5.17,5.17,0,0,0-1.6-2.08,4.33,4.33,0,0,0-2.71-.81,3.62,3.62,0,0,0-3.3,1.8,8.83,8.83,0,0,0-1.1,4.67Z"/><path class="cls-1" d="M389.41,110.47a6,6,0,0,1-4.69-2.08,7.62,7.62,0,0,1-1.86-5.28v-.76A7.84,7.84,0,0,1,384.71,97a5.74,5.74,0,0,1,4.48-2.12,5.56,5.56,0,0,1,4.35,1.75,6.69,6.69,0,0,1,1.58,4.66v1.42H384.51v.4a6.63,6.63,0,0,0,1.35,4.24,4.3,4.3,0,0,0,3.55,1.71,7.22,7.22,0,0,0,2.64-.43,5.22,5.22,0,0,0,1.87-1.24l.71,1.14a6,6,0,0,1-2.14,1.41A8.22,8.22,0,0,1,389.41,110.47Zm-.22-14.17a4,4,0,0,0-3.09,1.41,6,6,0,0,0-1.46,3.53l0,.07h8.8v-.42a4.8,4.8,0,0,0-1.15-3.28A3.94,3.94,0,0,0,389.19,96.3Z"/><path class="cls-1" d="M405.88,109.07a4.74,4.74,0,0,0,2.92-.94,3.09,3.09,0,0,0,1.26-2.62h1.47l0,.08a4.12,4.12,0,0,1-1.66,3.48,6.19,6.19,0,0,1-4,1.4,5.71,5.71,0,0,1-4.73-2.1,8.4,8.4,0,0,1-1.68-5.41v-.58A8.38,8.38,0,0,1,401.14,97a5.69,5.69,0,0,1,4.72-2.11,7.63,7.63,0,0,1,3.18.65,6.24,6.24,0,0,1,2.35,1.78l.07,3.28H410l-.26-2.67a4.74,4.74,0,0,0-1.66-1.19,5.54,5.54,0,0,0-2.26-.44A4,4,0,0,0,402.29,98a7.65,7.65,0,0,0-1.16,4.35V103a7.73,7.73,0,0,0,1.15,4.39A4,4,0,0,0,405.88,109.07Z"/><path class="cls-1" d="M415.61,109l2.26-.18V96.57l-2.26-.18V95.16h3.92v13.62l2.26.18v1.22h-6.18Zm3.92-18.1h-1.65V88.52h1.65Z"/><path class="cls-1" d="M429.71,95.16l.21,2.5v.18a5.33,5.33,0,0,1,1.74-2.17,4.4,4.4,0,0,1,2.62-.78,3.86,3.86,0,0,1,.62,0l.49.1-.22,1.55-1.24-.08a3.77,3.77,0,0,0-2.58.88,4.86,4.86,0,0,0-1.44,2.42v9l2.26.18v1.22H426V109l2.26-.18V96.57L426,96.39V95.16h3.71Z"/><polygon class="cls-2" points="182.36 104.69 152.45 82.26 152.45 22.43 182.36 0 182.36 104.69"/><polygon class="cls-1" points="122.54 39.27 122.54 18.08 152.45 26.17 152.45 22.43 115.06 7.48 115.06 39.27 122.54 39.27"/></g></g></svg>